<svg width="231" height="52" viewBox="0 0 231 52" fill="none" xmlns="http://www.w3.org/2000/svg">
<path d="M230.443 41.5081L230.435 41.4526L229.891 37.6052H229.888C229.766 36.5793 229.357 35.7603 228.706 35.2383C228.25 34.8723 227.709 34.6788 227.141 34.6788C227.033 34.6788 226.925 34.6863 226.816 34.6998L226.697 34.7148L226.571 34.7478C225.758 34.9638 224.8 35.1708 223.942 35.3193L223.603 35.3778L223.594 35.0313C223.57 34.1509 223.567 32.9569 223.583 31.163C223.614 28.4496 223.707 24.9187 223.846 21.2094L223.851 21.1569L223.846 21.0894V20.7579L224.066 20.6979C224.383 20.6109 224.674 20.4849 224.93 20.3274C225.44 20.0109 225.846 19.5519 226.112 18.9939C226.362 18.502 226.483 17.962 226.47 17.3875C226.458 16.8325 226.314 16.2925 226.044 15.7811C225.762 15.2426 225.331 14.7986 224.795 14.4971C224.314 14.2211 223.797 14.0816 223.259 14.0816H223.229C222.68 14.0861 222.139 14.2421 221.659 14.5346C221.401 14.6876 221.154 14.8961 220.925 15.1526L220.753 15.3476L220.537 15.2036C219.058 14.2211 217.254 13.7021 215.318 13.7021H215.23L215.193 13.7051L203.955 14.2571V14.2541C201.758 14.2946 199.647 15.1721 198.003 16.729L197.615 17.095L197.505 16.573C197.225 15.2531 196.209 14.3696 194.917 14.3216L166.826 12.1257H166.752C166.398 12.1287 166.044 12.1977 165.7 12.3312L165.422 12.4392L165.314 12.1602C164.322 9.58181 162.261 7.97987 159.936 7.97987L148.438 8.07736C147.304 8.08636 146.275 8.41785 145.381 9.06433L145.093 9.27282L144.937 8.95183C144.422 7.88237 143.335 7.27039 141.958 7.27039L135.336 7.32289C134.378 7.33339 133.496 7.69788 132.913 8.32635C132.426 8.83783 132.164 9.50981 132.175 10.2178L132.649 15.7736L132.127 15.4106C130.988 14.6201 129.717 14.2196 128.347 14.2196L117.497 14.3111C115.372 14.3321 113.301 15.1616 111.668 16.645L111.343 16.939L111.188 16.5295C110.023 13.4667 106.505 11.4882 102.215 11.4882H102.191C101.899 11.4657 76.3546 9.96579 75.6625 9.92529H75.6027C74.9301 9.93729 74.2992 10.2223 73.8254 10.7293C73.2469 11.3442 72.9285 12.2682 72.9494 13.2642L73.0675 18.436C73.0735 18.5695 73.0825 18.718 73.0974 18.8874L73.1228 19.1814L72.8299 19.2114C68.9852 19.6089 66.7236 19.8429 66.6414 19.8534L66.6175 19.8579H66.5936C64.4067 19.9014 62.4784 20.4399 61.0165 21.4163L60.5576 21.7223L60.5516 21.1689C60.5157 17.383 60.4843 14.6981 60.4843 14.6936V14.6561C60.444 13.3557 59.4604 12.0222 57.3542 11.9697V11.9727L51.8982 11.5707L51.8085 11.5737C51.5305 11.5737 51.239 11.6112 50.9431 11.6847L50.5783 11.7747L50.5738 11.3982C50.5365 8.46435 50.514 6.55492 50.514 6.55192C50.4767 5.23947 49.4453 3.82503 47.2673 3.82503H47.0132C46.5439 3.93902 41.3046 5.19747 41.1477 5.23647L41.1267 5.24247L41.1058 5.24547C40.2672 5.33397 39.5348 5.66996 39.0445 6.19194C38.5945 6.66892 38.3419 7.28689 38.3329 7.92887V8.03986L38.599 13.5837L38.1222 13.3032C36.4958 12.3447 34.2985 11.8377 31.7663 11.8377H31.7035H31.6826C31.5182 11.8257 22.2863 11.0862 21.6794 11.0382L21.5897 11.0412C18.8856 11.0622 16.5852 11.6532 14.9409 12.7527L14.4162 13.1037L14.4775 12.4737C14.9947 7.2089 15.4058 3.05556 15.4327 2.77957V2.65057C15.3833 1.11613 14.0709 0.00317383 12.313 0.00317383L12.0036 0.00617371C8.011 1.20013 1.546 3.24005 1.07066 3.64803C0.626704 4.12052 0.377073 4.74749 0.371094 5.41047C0.371094 5.44646 0.371094 5.48096 0.372589 5.52596L1.25302 42.39C1.32926 45.7184 4.7658 47.9533 9.80476 47.9533H9.92583C10.1127 47.9578 38.4241 48.5773 39.1267 48.5923H39.1611C40.0684 48.5758 40.9548 48.1978 41.5318 47.5828C41.9713 47.1104 42.2224 46.5044 42.2388 45.8789L42.2478 45.5339L42.5871 45.5909C42.783 45.6239 42.9848 45.6404 43.1851 45.6404C43.2284 45.6404 47.7442 45.5969 47.7442 45.5969C47.9026 45.5954 48.0701 45.5834 48.2704 45.5579L48.5887 45.5189L48.6067 45.8399C48.6964 47.4958 50.2928 48.4858 51.7846 48.4858H51.8459C52.3272 48.4828 57.5366 48.4393 57.5904 48.4393C58.5904 48.4288 59.5023 48.0598 60.0957 47.4254C60.5277 46.9679 60.7788 46.3799 60.8042 45.7679L60.8296 45.1574L61.296 45.5504C62.3409 46.4309 64.0838 47.4793 66.459 47.4793L66.5054 47.4718L77.105 46.8719C78.8419 46.8509 80.5684 46.3064 81.9661 45.3404L82.4444 45.0104L82.4354 45.5924C82.401 47.6758 82.3816 49.0483 82.3801 49.1773L82.3831 49.2298C82.4235 50.8047 83.7568 51.9942 85.4848 51.9942H85.5431L85.5356 52.0017C85.6044 51.9927 85.6791 51.9927 85.7494 51.9912L90.2906 51.9582C91.5417 51.9447 92.2861 51.4347 92.6912 51.0072C93.1681 50.5077 93.4341 49.8493 93.4431 49.1563V49.0798L93.4401 48.9733C93.4057 48.6823 92.7645 43.1625 92.5552 41.3521L92.5133 40.9861L92.8796 41.0191C93.7794 41.1001 103.016 41.9041 103.484 41.9446L103.575 41.9416C105.964 41.9221 108.409 41.7001 110.116 40.2241L110.475 39.9136L110.599 40.3726C111.403 43.335 113.774 45.0344 117.103 45.0374H117.13C117.302 45.0539 128.194 46.0034 128.632 46.0409H128.725C131.109 46.0184 133.308 45.2699 134.918 43.932L135.185 43.71L135.365 44.0085C135.907 44.9114 137.039 45.5189 138.182 45.5189L142.762 45.4769C143.38 45.4694 143.978 45.3179 144.49 45.0374L144.71 44.9174L144.867 45.1139C145.858 46.3574 148 47.8408 152.573 47.8408H152.748L164.567 47.7358C168.066 47.6998 170.573 46.8764 172.02 45.2894L172.188 45.1049L172.398 45.2369C172.872 45.5339 173.421 45.6914 173.984 45.6914L194.985 45.5039C195.837 45.5039 196.76 45.0824 197.39 44.412C197.557 44.2245 197.686 44.052 197.784 43.8855L197.952 43.6005L198.218 43.7955C199.753 44.9234 201.642 45.5204 203.678 45.5204L215.082 45.4124L215.254 45.4184L215.436 45.4079L215.429 45.4154C215.486 45.4064 215.541 45.4049 215.586 45.4034L227.957 45.0344H228.048L228.13 45.0224C229.659 44.8214 230.655 43.308 230.446 41.5066L230.443 41.5081Z" fill="#17120F"/>
<path d="M38.9198 37.0486L14.0508 38.598C11.6442 38.619 9.87586 37.5256 9.83699 36.0001V35.9776L9.83849 35.9551L13.1181 2.70442C13.0912 2.52893 12.7504 2.38493 12.3453 2.37593C8.13292 3.64038 3.47215 5.15532 2.69336 5.60981L3.56333 42.3269C3.6022 43.9168 5.61569 45.6118 9.95508 45.5758L39.147 46.2102C39.4683 46.2012 39.7374 46.0663 39.8615 45.9358C39.9153 45.8788 39.9287 45.8368 39.9287 45.8218L39.7254 37.3936C39.724 37.3111 39.4265 37.0516 38.9198 37.0486Z" fill="#F6F6F6"/>
<path d="M48.196 6.57727C48.1916 6.39878 47.8448 6.20829 47.2872 6.20679L41.5457 7.58373H41.5053C41.175 7.58373 40.8551 7.68573 40.7101 7.83572C40.6473 7.90172 40.6473 7.94822 40.6488 7.96472L42.2871 42.8669C42.2976 42.9659 42.6728 43.2599 43.178 43.2599L47.7312 43.2149C48.1661 43.2119 48.4636 43.0649 48.5862 42.9374C48.6385 42.8834 48.6519 42.8429 48.6519 42.8264L48.196 6.57427V6.57727Z" fill="#F6F6F6"/>
<path d="M77.5386 21.1267C77.5191 21.1267 77.5012 21.1267 77.4818 21.1267L66.7895 22.2262C64.4935 22.2472 62.619 22.8921 61.5099 24.0411C60.7655 24.8136 60.4022 25.7645 60.4291 26.8685L60.4725 28.7899C60.477 28.9834 60.8133 29.2789 61.2034 29.2789L65.205 29.2369C65.4397 29.2369 65.6908 29.1289 65.8493 28.9639C65.921 28.8889 65.9629 28.8094 65.9614 28.7509L65.9419 27.9559C65.921 27.14 66.1497 26.4785 66.6206 25.991C67.2125 25.376 68.1782 25.0581 69.4876 25.0476L71.1842 25.0326C71.2021 25.0326 71.2186 25.0326 71.2365 25.0326C73.4727 25.0326 74.9436 26.141 74.9884 27.8674L75.0153 29.1319C75.0303 29.8009 74.7657 30.4369 74.2515 30.9693C73.5579 31.6893 72.4727 32.1258 71.3486 32.1378L67.0212 32.1738C64.7087 32.1933 62.8358 32.8233 61.7475 33.9467C61.0061 34.7132 60.6414 35.6806 60.6653 36.8191L60.743 39.9915C60.7968 42.3119 63.338 45.0928 66.4203 45.0928C66.4307 45.0928 66.4427 45.0928 66.4532 45.0928L77.0333 44.4913C78.7583 44.4808 80.3951 43.8043 81.5252 42.6359C82.3862 41.7449 82.8466 40.6785 82.8212 39.6315V39.6225V39.6135L83.2263 25.2471C83.1635 22.8891 80.724 21.1267 77.5371 21.1267H77.5386ZM78.1185 40.095C77.4369 40.803 76.3756 41.1989 75.129 41.2109L72.6237 41.2379C72.6132 41.2379 72.6042 41.2379 72.5938 41.2379C70.3381 41.2379 68.7402 40.0335 68.6998 38.3011L68.6939 37.8826C68.6714 37.0036 68.9241 36.2626 69.4218 35.7451C69.9779 35.1677 70.815 34.8692 71.9107 34.8602L75.0542 34.8512C75.0662 34.8512 75.0796 34.8512 75.0916 34.8512C77.6432 34.8512 78.8166 36.3226 78.8465 37.7866L78.8555 38.2051C78.8734 38.9205 78.6178 39.5745 78.1171 40.095H78.1185Z" fill="#F6F6F6"/>
<path d="M132.389 18.9563C131.649 17.8718 130.335 16.5834 128.317 16.5984L117.517 16.6944C115.29 16.7124 113.735 17.8418 112.823 18.7868C111.436 20.2237 110.599 22.2067 110.638 23.9616L110.692 26.036C110.696 26.258 111.052 26.597 111.515 26.597L114.23 26.576C114.49 26.573 114.774 26.4515 114.951 26.267C115.034 26.1785 115.082 26.087 115.079 26.015L115.063 25.1466C115.042 24.2706 115.287 23.5611 115.789 23.0391C116.423 22.3807 117.462 22.0372 118.876 22.0222L122.345 21.9967C124.789 21.9712 126.389 23.1666 126.435 25.0401L126.462 26.408C126.481 27.128 126.199 27.8134 125.646 28.3879C124.898 29.1634 123.726 29.6329 122.511 29.6419L117.828 29.6854C115.813 29.6989 114.429 30.1264 113.595 30.9903C112.822 31.7898 112.483 32.9823 112.526 34.7417L112.607 38.1826C112.678 41.1824 114.22 42.6884 117.193 42.6584H117.209L128.718 43.6648C130.804 43.6423 132.677 42.9299 133.857 41.7074C134.641 40.8944 135.045 39.9255 135.026 38.9055L133.843 23.3181C133.813 22.1977 133.416 20.4652 132.389 18.9578V18.9563ZM128.759 38.7705C128.302 39.243 127.602 39.4755 126.619 39.4815L123.906 39.513C123.888 39.513 123.868 39.513 123.851 39.513C121.433 39.513 119.719 38.223 119.674 36.3631L119.664 35.8996C119.646 35.1317 119.921 34.4312 120.457 33.8747C121.197 33.1067 122.368 32.6778 123.752 32.6643L126.535 32.6478C126.555 32.6478 126.576 32.6478 126.595 32.6478C129.323 32.6478 129.369 34.3967 129.408 35.8036L129.42 36.2581C129.44 37.1431 129.377 38.1316 128.758 38.7705H128.759Z" fill="#F6F6F6"/>
<path d="M159.944 10.3586C159.935 10.3586 159.926 10.3586 159.916 10.3586L148.458 10.4531C147.602 10.4621 146.872 10.7726 146.289 11.3771C145.389 12.3101 144.918 13.873 144.962 15.7794L145.146 23.4006C145.223 26.624 146.69 28.6939 148.895 28.6759L159.3 28.5844C160.122 28.5769 160.947 28.1869 161.623 27.488C162.547 26.531 163.058 25.1406 163.026 23.6751V23.6586V23.6421L163.596 15.2484C163.529 12.4975 161.929 10.3586 159.944 10.3586ZM156.908 20.9092C156.288 21.5572 155.297 22.0147 154.5 22.0237L151.566 22.0477C151.566 22.0477 151.552 22.0477 151.546 22.0477C150.243 22.0477 149.409 20.9572 149.367 19.1978L149.324 17.1879C149.298 16.2264 149.537 15.4539 150.017 14.956C150.374 14.584 150.851 14.386 151.394 14.383L155.383 14.341C155.383 14.341 155.389 14.341 155.392 14.341C156.641 14.341 157.573 15.5604 157.615 17.2449L157.648 19.1168C157.666 19.7648 157.41 20.3857 156.908 20.9092Z" fill="#F6F6F6"/>
<path d="M195.747 36.9556C195.747 36.8821 195.69 36.7891 195.596 36.6991C195.396 36.5056 195.058 36.3631 194.804 36.3631C194.799 36.3631 194.795 36.3631 194.79 36.3631L181.75 36.4771C180.599 36.4471 180.071 35.8517 179.956 35.3057C179.817 34.6412 180.222 33.9782 180.989 33.6167L194.028 27.38C195.005 26.882 195.487 25.985 195.452 24.7161L195.278 17.2974C195.258 16.6944 194.953 16.6974 194.792 16.6989H194.777H194.762L166.761 14.5045C166.406 14.5165 166.05 14.818 166.053 15.1104V15.1344L166.05 15.1584L165.027 23.1921C165.053 23.4816 165.428 23.7771 165.778 23.7726L187.563 23.5851C188.406 23.5731 189.047 23.9616 189.191 24.5706C189.3 25.0311 189.106 25.676 188.236 26.102L188.213 26.1125L173.893 31.9218C172.891 32.3823 172.578 32.9733 172.607 34.3487L173.216 42.6569C173.222 42.9644 173.619 43.3124 173.963 43.3124H173.966L194.956 43.1294C195.189 43.1279 195.514 42.9704 195.711 42.7664C195.813 42.6614 195.872 42.5504 195.869 42.4724L195.745 36.9586L195.747 36.9556Z" fill="#F6F6F6"/>
<path d="M31.6112 14.2105H31.5962L21.5916 13.4141C18.8636 13.4411 16.6483 14.1325 15.5122 15.313C14.9248 15.9235 14.6378 16.6419 14.6572 17.4489V17.4744L12.9531 31.4644C13.0219 34.0353 14.3537 35.2427 17.5422 35.6222L32.1568 34.1673C35.4304 34.0098 38.704 32.5788 38.6337 29.7334L38.7653 18.1209C38.707 15.715 35.9042 14.1745 31.6097 14.2105H31.6112ZM33.7906 27.8C33.7996 28.3595 33.5738 28.8935 33.1374 29.3464C32.4034 30.1084 31.1732 30.5524 29.7591 30.5644L27.8577 30.5869C27.8323 30.5869 27.8069 30.5869 27.7815 30.5869C24.5243 30.5869 23.8128 29.3509 23.7919 28.31L23.6334 21.6517C23.6185 21.0533 23.8263 20.5133 24.2344 20.0903C24.901 19.3988 26.0625 19.0268 27.5947 19.0148L30.52 18.9863C32.9131 18.9683 34.4199 19.9508 34.4558 21.5497V21.5722L33.7921 27.7985L33.7906 27.8Z" fill="#F6F6F6"/>
<path d="M58.1692 14.7235C58.1632 14.5405 57.8 14.344 57.2155 14.347H57.2021L51.8223 13.9556C51.5024 13.9601 51.1825 14.065 51.0405 14.2135C50.9808 14.2765 50.9822 14.317 50.9837 14.3335L50.918 45.7333C50.9344 45.8278 51.3021 46.1053 51.7969 46.1053H51.7999L57.5743 46.0528C58.0078 46.0528 58.3053 45.9028 58.4308 45.7753C58.4831 45.7213 58.4966 45.6823 58.4966 45.6688V45.6658L58.1692 14.725V14.7235Z" fill="#F6F6F6"/>
<path d="M141.936 9.64922L135.346 9.70021C135.105 9.70471 134.867 9.76921 134.697 9.87571C134.604 9.9342 134.495 10.0287 134.492 10.1517L137.298 42.6824C137.301 42.8159 137.693 43.1399 138.186 43.1369L142.736 43.0934C143.15 43.0904 143.44 42.9419 143.573 42.8054C143.631 42.7439 143.664 42.6824 143.664 42.6329L142.891 10.0977C142.882 9.83371 142.479 9.64322 141.936 9.64922Z" fill="#F6F6F6"/>
<path d="M162.891 30.2764L154.126 30.3529C151.089 30.3784 148.749 31.0144 147.706 32.0974C147.326 32.4903 147.141 32.9328 147.153 33.4098V33.4353L146.135 42.2055C146.224 44.6444 149.592 45.4813 152.728 45.4498L164.549 45.3538C166.932 45.3298 170.936 44.8424 171.031 41.862L170.016 33.2778C169.479 31.2229 167.141 30.2404 162.891 30.2749V30.2764ZM164.604 39.9001C164.456 41.676 162.589 41.6985 160.944 41.718L157.06 41.748C156.866 41.7495 156.681 41.751 156.501 41.751C155.449 41.751 154.67 41.688 154.181 41.205C153.885 40.9125 153.74 40.503 153.736 39.9526V39.9106L153.745 39.8701L154.728 35.6342C154.733 35.3042 154.863 34.9982 155.107 34.7448C155.8 34.0248 157.246 33.8598 158.335 33.8478L160.95 33.8238C160.98 33.8238 161.008 33.8238 161.036 33.8238C164.222 33.8238 164.495 35.1707 164.503 35.5877L164.604 39.8806V39.9001Z" fill="#F6F6F6"/>
<path d="M102.117 13.867H102.105H102.093L75.6215 12.3086C75.5916 12.3101 75.5483 12.3206 75.493 12.3776C75.345 12.5291 75.2553 12.8576 75.2643 13.2131L75.3839 18.3819C75.3958 18.9294 75.5707 19.3448 75.792 19.3613L83.8564 18.4029C84.3347 18.3984 84.7936 18.7314 85.0956 19.3163L85.1359 19.3958L84.6965 49.1637C84.7099 49.4202 85.0746 49.6227 85.5126 49.6137L90.2735 49.5702C90.6203 49.5672 90.8969 49.4847 91.0329 49.3437C91.0927 49.2822 91.1211 49.2117 91.1226 49.1232L90.1031 40.329C90.0957 39.969 90.2377 39.6286 90.5142 39.3421C90.9552 38.8861 91.7071 38.6101 92.5277 38.6026H92.5441L103.57 39.5566C105.538 39.5401 107.697 39.3691 108.811 38.2276C109.419 37.6036 109.707 36.7232 109.691 35.5352L109.296 18.7209C109.223 15.8695 106.207 13.8281 102.12 13.864L102.117 13.867ZM104.09 34.0908C103.444 34.7627 102.417 35.1407 101.199 35.1527L98.4785 35.1737C98.4561 35.1737 98.4321 35.1737 98.4097 35.1737C96.1511 35.1737 94.4306 33.9633 94.3977 32.3373L94.1645 22.5937C94.1496 21.9802 94.3857 21.4013 94.8506 20.9198C95.5726 20.1713 96.7639 19.7348 98.1212 19.7228L100.84 19.6973C103.044 19.6838 104.541 20.8073 104.579 22.4962L104.809 32.2353C104.827 32.9403 104.577 33.5823 104.088 34.0908H104.09Z" fill="#F6F6F6"/>
<path d="M228.144 41.7945L227.596 37.9036C227.553 37.5271 227.434 37.2347 227.282 37.1147C227.231 37.0757 227.182 37.0577 227.126 37.0607C225.327 37.5331 222.249 38.2171 221.614 37.5706C221.436 37.3846 221.146 37.0802 221.304 28.9955C221.379 25.1721 221.524 21.3713 221.533 21.1373C221.463 18.2244 218.757 16.054 215.244 16.0855L204.057 16.6344C201.791 16.6539 200.247 17.7684 199.349 18.6999C197.942 20.1578 197.132 22.1797 197.18 24.1072L197.223 26.4231C197.232 26.7156 197.625 27.089 198.05 27.08L201.99 27.041C202.229 27.041 202.485 26.9271 202.661 26.7456C202.776 26.6271 202.841 26.4951 202.838 26.3826L202.809 25.2606C202.784 24.1147 202.764 23.2102 203.331 22.6267C203.734 22.2112 204.394 22.0132 205.404 22.0072L208.872 21.9682C208.885 21.9682 208.899 21.9682 208.912 21.9682C211.325 21.9682 212.917 23.2837 212.971 25.3296L212.999 26.8491C213.013 27.3935 212.878 27.8015 212.585 28.0955C212.034 28.6505 211.068 28.6265 209.951 28.5995C209.697 28.5935 209.434 28.5875 209.168 28.5875C209.119 28.5875 209.068 28.5875 209.019 28.5875L204.328 28.625C201.941 28.6445 199.968 29.3405 198.77 30.5824C197.839 31.5499 197.385 32.7978 197.422 34.2948L197.507 38.1271C197.573 40.8975 200.335 43.1339 203.676 43.1339C203.697 43.1339 203.716 43.1339 203.736 43.1339L215.214 43.0319C215.234 43.0319 215.252 43.0319 215.268 43.0319C215.304 43.0319 215.339 43.0304 215.382 43.0319L227.862 42.6569C227.896 42.6509 227.943 42.6329 227.996 42.5654C228.122 42.4065 228.179 42.105 228.143 41.796L228.144 41.7945ZM216.264 38.3371C215.528 39.1006 214.422 39.5281 213.15 39.5401L210.434 39.5581C210.419 39.5581 210.403 39.5581 210.388 39.5581C207.96 39.5581 206.241 38.1376 206.198 36.0932L206.184 35.5907C206.162 34.6908 206.47 33.8823 207.075 33.2538C207.818 32.4828 208.95 32.0509 210.264 32.0404L213.049 32.0149C215.821 31.9909 217.107 33.7398 217.141 35.4797L217.162 35.9792C217.185 36.8912 216.874 37.7056 216.262 38.3386L216.264 38.3371Z" fill="#F6F6F6"/>
<path d="M222.964 18.1779L222.955 17.5749H223.079C223.157 17.5719 223.213 17.5899 223.254 17.6259C223.309 17.6694 223.388 17.7759 223.484 17.9544L223.604 18.1749H223.868L223.701 17.9004C223.623 17.7669 223.554 17.6724 223.5 17.6169C223.466 17.5824 223.432 17.5659 223.387 17.5419C223.499 17.5314 223.593 17.4864 223.66 17.4054C223.726 17.3304 223.756 17.2359 223.756 17.1309C223.753 17.0574 223.729 16.9899 223.69 16.9209C223.642 16.8549 223.586 16.8084 223.517 16.7844C223.45 16.7589 223.334 16.7454 223.176 16.7469L222.725 16.7499L222.757 18.1899L222.965 18.1809L222.964 18.1779ZM223.191 16.9374C223.287 16.9374 223.369 16.9464 223.403 16.9629C223.439 16.9839 223.471 17.0034 223.491 17.0379C223.517 17.0694 223.53 17.1114 223.53 17.1504C223.532 17.2209 223.506 17.2674 223.463 17.3064C223.42 17.3499 223.339 17.3709 223.207 17.3739H222.949L222.937 16.9374H223.189H223.191Z" fill="#F6F6F6"/>
<path d="M222.695 18.6054C222.89 18.7164 223.1 18.7719 223.309 18.7719C223.518 18.7719 223.726 18.7119 223.916 18.5964C224.11 18.4779 224.258 18.3084 224.357 18.0969C224.464 17.8824 224.506 17.6619 224.503 17.4309C224.502 17.1954 224.442 16.9809 224.328 16.7679C224.215 16.5474 224.052 16.3885 223.855 16.2775C223.654 16.1635 223.454 16.105 223.251 16.105C223.047 16.105 222.843 16.1725 222.647 16.282C222.452 16.4035 222.309 16.5729 222.201 16.7814C222.094 17.0019 222.049 17.2239 222.049 17.4534C222.05 17.6784 222.119 17.9004 222.227 18.1134C222.342 18.3249 222.499 18.4869 222.698 18.6069L222.695 18.6054ZM222.381 16.8894C222.469 16.7109 222.588 16.5729 222.753 16.477C222.916 16.375 223.079 16.3285 223.251 16.3285C223.424 16.327 223.59 16.372 223.759 16.4665C223.923 16.5624 224.059 16.6989 224.148 16.8774C224.248 17.0529 224.297 17.2359 224.306 17.4309C224.307 17.6259 224.263 17.8074 224.18 17.9859C224.098 18.1644 223.98 18.3039 223.81 18.4014C223.653 18.5034 223.484 18.5529 223.309 18.5529C223.134 18.5529 222.956 18.5079 222.792 18.4074C222.624 18.3129 222.496 18.1779 222.4 18.0024C222.307 17.8269 222.257 17.6409 222.257 17.4489C222.246 17.2599 222.291 17.0724 222.381 16.8909V16.8894Z" fill="#F6F6F6"/>
</svg>
